<svg width="1179.9" height="1180.1" viewBox="16.2 10.9 1179.9 1180.1" xmlns="http://www.w3.org/2000/svg" xmlns:xlink="http://www.w3.org/1999/xlink" fill="#2A2E3A" overflow="hidden"><style>
.MsftOfcThm_Background1_Fill_v2 {
 fill:#FFFFFF; 
}
</style>
<g id="change1_1"><path d="M1196.1 600.9C1195.8 925.6 933.7 1191 605.8 1190.8 280.1 1190.6 16.2 927.7 16.3 600.6 16.4 273.1 281.4 11.1 606.3 11 931.9 10.9 1196.1 275.3 1196.1 600.9ZM708.1 730.1C708.1 657.4 708 584.8 708.2 512.1 708.3 484.6 698.5 461.3 678.2 443.2 646.2 414.6 609 408.6 569.1 422.7 531 436.2 505.5 472.8 505.7 514.2 506.5 659 506.1 803.8 505.9 948.6 505.9 1030.4 576 1044.2 609.5 1044.1 659.9 1043.9 709.4 1003.3 708.4 945 707.1 873.4 708.1 801.7 708.1 730.1ZM715 265.5C714.9 205.1 666.7 157 606.2 157 545.6 157 497.2 205.5 497.3 266.1 497.4 326 546.3 374.8 606.3 374.8 666.7 374.8 715 326.2 715 265.5Z" class="MsftOfcThm_Background1_Fill_v2" fill="#FFFFFF"/></g></svg>